<?xml version="1.0" encoding="UTF-8"?><svg id="Layer_1" xmlns="http://www.w3.org/2000/svg" viewBox="0 0 360 180"><defs><style>.cls-1{fill:#f8952e;}.cls-2{fill:#58595b;}</style></defs><path class="cls-1" d="m18,81.12V19.81h43.39v11.49h-30.34v12.96h29.69v11.49h-29.69v13.88h30.34v11.49H18Z"/><path class="cls-1" d="m85.58,81.12V31.3h-17.93v-11.49h48.91v11.49h-17.83v49.83h-13.15Z"/><path class="cls-1" d="m119.62,50.51c0-18.85,14.25-31.72,32.64-31.72,13.51,0,21.33,7.35,25.65,14.98l-11.22,5.52c-2.57-4.96-8.09-8.92-14.43-8.92-11.12,0-19.21,8.55-19.21,20.13s8.09,20.13,19.21,20.13c6.34,0,11.86-3.86,14.43-8.92l11.22,5.42c-4.41,7.63-12.14,15.08-25.65,15.08-18.39,0-32.64-12.87-32.64-31.72Z"/><path class="cls-2" d="m213.42,81.12l-10.11-14.98-10.2,14.98h-12.96l15.72-22.8-14.8-21.6h13.05l9.19,13.7,9.1-13.7h13.05l-14.89,21.6,15.9,22.8h-13.05Z"/><path class="cls-1" d="m18,159.64v-61.32h24.18c19.21,0,32.54,12.23,32.54,30.7s-13.33,30.61-32.54,30.61h-24.18Zm43.39-30.61c0-10.85-6.62-19.21-19.21-19.21h-11.12v38.33h11.12c12.13,0,19.21-8.73,19.21-19.12Z"/><path class="cls-1" d="m84.25,159.64v-61.32h43.39v11.49h-30.34v12.96h29.69v11.49h-29.69v13.88h30.34v11.49h-43.39Z"/><path class="cls-1" d="m134.5,151l7.08-9.93c4.32,4.5,11.03,8.27,19.49,8.27,7.17,0,10.66-3.31,10.66-6.8,0-10.85-35.3-3.4-35.3-26.48,0-10.2,8.83-18.66,23.26-18.66,9.74,0,17.83,2.94,23.9,8.55l-7.26,9.56c-4.96-4.6-11.58-6.71-17.83-6.71-5.61,0-8.73,2.48-8.73,6.16,0,9.74,35.21,3.22,35.21,26.11,0,11.22-8,19.67-24.54,19.67-11.77,0-20.22-3.95-25.92-9.74Z"/><path class="cls-1" d="m194.41,159.64v-61.32h13.05v61.32h-13.05Z"/><path class="cls-1" d="m216.94,129.03c0-19.4,14.71-31.72,32.64-31.72,12.78,0,20.78,6.44,25.37,13.7l-10.85,5.88c-2.76-4.32-8-8-14.52-8-11.12,0-19.21,8.55-19.21,20.13s8.09,20.13,19.21,20.13c5.42,0,10.57-2.39,13.05-4.69v-7.35h-16.18v-11.4h29.23v23.53c-6.25,6.99-14.98,11.58-26.11,11.58-17.93,0-32.64-12.5-32.64-31.81Z"/><path class="cls-1" d="m329.26,159.64l-29.24-39.99v39.99h-13.05v-61.32h13.42l28.41,38.52v-38.52h13.05v61.32h-12.59Z"/></svg>